<svg width="23" height="23" viewBox="0 0 23 23" fill="none" xmlns="http://www.w3.org/2000/svg">
<path d="M15.2001 20.357V16.917C15.2339 16.4931 15.1759 16.067 15.03 15.667C14.8841 15.267 14.6537 14.9023 14.3541 14.597C17.1801 14.2859 20.1501 13.2281 20.1501 8.37477C20.1499 7.13372 19.6665 5.94027 18.8001 5.04143C19.2104 3.95566 19.1814 2.75552 18.7191 1.69032C18.7191 1.69032 17.6571 1.37921 15.2001 3.00588C13.1373 2.45372 10.9629 2.45372 8.9001 3.00588C6.4431 1.37921 5.3811 1.69032 5.3811 1.69032C4.91884 2.75552 4.88983 3.95566 5.3001 5.04143C4.42721 5.94694 3.94337 7.15118 3.9501 8.40143C3.9501 13.2192 6.9201 14.277 9.7461 14.6237C9.45 14.9259 9.22163 15.2862 9.07588 15.6814C8.93012 16.0765 8.87022 16.4975 8.9001 16.917V20.357M8.9001 17.6903C4.4001 19.0237 4.4001 15.4681 2.6001 15.0237L8.9001 17.6903Z" stroke="white" stroke-width="1.24444" stroke-linecap="round" stroke-linejoin="round"/>
</svg>
